<svg xmlns="http://www.w3.org/2000/svg" xmlns:xlink="http://www.w3.org/1999/xlink" width="500" zoomAndPan="magnify" viewBox="0 0 375 374.999991" height="500" preserveAspectRatio="xMidYMid meet" version="1.0"><defs><g/><clipPath id="c49555e01c"><rect x="0" width="246" y="0" height="254"/></clipPath></defs><rect x="-37.5" width="450" fill="#ffffff" y="-37.499999" height="449.999989" fill-opacity="1"/><rect x="-37.5" width="450" fill="#0cc0df" y="-37.499999" height="449.999989" fill-opacity="1"/><g transform="matrix(1, 0, 0, 1, 129, 121)"><g clip-path="url(#c49555e01c)"><g fill="#ffffff" fill-opacity="1"><g transform="translate(0.486881, 202.066573)"><g><path d="M 15.140625 0 L 15.140625 -150.609375 L 68.15625 -150.609375 C 75.300781 -150.609375 81.992188 -149.453125 88.234375 -147.140625 C 94.472656 -144.828125 99.90625 -141.566406 104.53125 -137.359375 C 109.164062 -133.148438 112.8125 -128.132812 115.46875 -122.3125 C 118.132812 -116.488281 119.46875 -110.070312 119.46875 -103.0625 C 119.46875 -95.914062 118.132812 -89.429688 115.46875 -83.609375 C 112.8125 -77.785156 109.164062 -72.769531 104.53125 -68.5625 C 99.90625 -64.363281 94.472656 -61.109375 88.234375 -58.796875 C 81.992188 -56.484375 75.300781 -55.328125 68.15625 -55.328125 L 43.546875 -55.328125 L 43.546875 0 Z M 68.578125 -82.25 C 76.003906 -82.25 81.609375 -84.347656 85.390625 -88.546875 C 89.179688 -92.753906 91.078125 -97.59375 91.078125 -103.0625 C 91.078125 -105.726562 90.617188 -108.320312 89.703125 -110.84375 C 88.796875 -113.375 87.394531 -115.582031 85.5 -117.46875 C 83.613281 -119.363281 81.265625 -120.875 78.453125 -122 C 75.648438 -123.125 72.359375 -123.6875 68.578125 -123.6875 L 43.546875 -123.6875 L 43.546875 -82.25 Z M 68.578125 -82.25 "/></g></g></g><g fill="#ffffff" fill-opacity="1"><g transform="translate(125.009983, 202.066573)"><g><path d="M 61.203125 3.359375 C 54.753906 3.359375 48.582031 2.445312 42.6875 0.625 C 36.800781 -1.195312 31.40625 -3.929688 26.5 -7.578125 C 21.59375 -11.222656 17.316406 -15.671875 13.671875 -20.921875 C 10.023438 -26.179688 7.148438 -32.316406 5.046875 -39.328125 L 31.765625 -49.84375 C 33.722656 -42.28125 37.15625 -36.007812 42.0625 -31.03125 C 46.976562 -26.050781 53.429688 -23.5625 61.421875 -23.5625 C 64.367188 -23.5625 67.207031 -23.945312 69.9375 -24.71875 C 72.675781 -25.488281 75.128906 -26.609375 77.296875 -28.078125 C 79.472656 -29.554688 81.191406 -31.414062 82.453125 -33.65625 C 83.710938 -35.894531 84.34375 -38.488281 84.34375 -41.4375 C 84.34375 -44.238281 83.851562 -46.757812 82.875 -49 C 81.894531 -51.25 80.25 -53.351562 77.9375 -55.3125 C 75.625 -57.28125 72.609375 -59.175781 68.890625 -61 C 65.171875 -62.820312 60.578125 -64.710938 55.109375 -66.671875 L 45.859375 -70.046875 C 41.785156 -71.441406 37.679688 -73.332031 33.546875 -75.71875 C 29.410156 -78.101562 25.660156 -80.976562 22.296875 -84.34375 C 18.929688 -87.707031 16.160156 -91.664062 13.984375 -96.21875 C 11.816406 -100.78125 10.734375 -105.9375 10.734375 -111.6875 C 10.734375 -117.582031 11.890625 -123.085938 14.203125 -128.203125 C 16.515625 -133.316406 19.804688 -137.800781 24.078125 -141.65625 C 28.359375 -145.519531 33.476562 -148.535156 39.4375 -150.703125 C 45.394531 -152.878906 52.019531 -153.96875 59.3125 -153.96875 C 66.882812 -153.96875 73.441406 -152.953125 78.984375 -150.921875 C 84.523438 -148.890625 89.222656 -146.296875 93.078125 -143.140625 C 96.929688 -139.984375 100.050781 -136.507812 102.4375 -132.71875 C 104.820312 -128.9375 106.578125 -125.363281 107.703125 -122 L 82.671875 -111.484375 C 81.265625 -115.691406 78.703125 -119.476562 74.984375 -122.84375 C 71.265625 -126.207031 66.179688 -127.890625 59.734375 -127.890625 C 53.566406 -127.890625 48.445312 -126.453125 44.375 -123.578125 C 40.3125 -120.703125 38.28125 -116.953125 38.28125 -112.328125 C 38.28125 -107.835938 40.242188 -104.015625 44.171875 -100.859375 C 48.097656 -97.703125 54.335938 -94.648438 62.890625 -91.703125 L 72.359375 -88.5625 C 78.390625 -86.457031 83.894531 -84.035156 88.875 -81.296875 C 93.851562 -78.566406 98.128906 -75.304688 101.703125 -71.515625 C 105.273438 -67.734375 108.007812 -63.421875 109.90625 -58.578125 C 111.800781 -53.742188 112.75 -48.171875 112.75 -41.859375 C 112.75 -34.003906 111.171875 -27.238281 108.015625 -21.5625 C 104.859375 -15.882812 100.828125 -11.222656 95.921875 -7.578125 C 91.015625 -3.929688 85.472656 -1.195312 79.296875 0.625 C 73.128906 2.445312 67.097656 3.359375 61.203125 3.359375 Z M 61.203125 3.359375 "/></g></g></g></g></g></svg>